<?xml version="1.0" encoding="utf-8"?>
<!-- Generator: Adobe Illustrator 23.0.3, SVG Export Plug-In . SVG Version: 6.00 Build 0)  -->
<svg version="1.1" id="Layer_1" xmlns="http://www.w3.org/2000/svg" xmlns:xlink="http://www.w3.org/1999/xlink" x="0px" y="0px"
	 viewBox="0 0 100 100" style="enable-background:new 0 0 100 100;" xml:space="preserve">
<style type="text/css">
	.st0{fill:#00BFFF;}
</style>
<g id="QRCG_Logos">
	<path class="st0" d="M37.2,72.1c-5.2,0-9.4-4.2-9.4-9.4V37.9c0-5.2,4.2-9.4,9.4-9.4H62c5.2,0,9.4,4.2,9.4,9.4v34.2
		C71.4,72.1,37.2,72.1,37.2,72.1z M68.2,14.4H30.9c-9.5,0-17.2,7.7-17.2,17.2v37.3c0,9.5,7.7,17.2,17.2,17.2h54.5V31.6
		C85.4,22.1,77.7,14.4,68.2,14.4 M68.2,0c17.5,0,31.6,14.2,31.6,31.6v68.9H30.9c-17.5,0-31.6-14.2-31.6-31.6V31.6
		C-0.7,14.2,13.4,0,30.9,0H68.2L68.2,0z"/>
</g>
</svg>
